HIERARCHY
ROOT Hips
{
	OFFSET 0.000000 0.000000 0.000000
	CHANNELS 6 Xposition Yposition Zposition Zrotation Yrotation Xrotation 
	JOINT LHipJoint
	{
		OFFSET 0.000000 0.000000 0.000000
		CHANNELS 3 Zrotation Yrotation Xrotation
		JOINT LeftUpLeg
		{
			OFFSET 1.363060 -1.794630 0.839290
			CHANNELS 3 Zrotation Yrotation Xrotation
			JOINT LeftLeg
			{
				OFFSET 2.448110 -6.726130 0.000000
				CHANNELS 3 Zrotation Yrotation Xrotation
				JOINT LeftFoot
				{
					OFFSET 2.562200 -7.039590 0.000000
					CHANNELS 3 Zrotation Yrotation Xrotation
					JOINT LeftToeBase
					{
						OFFSET 0.157640 -0.433110 2.322550
						CHANNELS 3 Zrotation Yrotation Xrotation
						End Site
						{
							OFFSET 0.000000 0.000000 0.000000
						}
					}
				}
			}
		}
	}
	JOINT RHipJoint
	{
		OFFSET 0.000000 0.000000 0.000000
		CHANNELS 3 Zrotation Yrotation Xrotation
		JOINT RightUpLeg
		{
			OFFSET -1.305520 -1.794630 0.839290
			CHANNELS 3 Zrotation Yrotation Xrotation
			JOINT RightLeg
			{
				OFFSET -2.542530 -6.985550 0.000000
				CHANNELS 3 Zrotation Yrotation Xrotation
				JOINT RightFoot
				{
					OFFSET -2.568260 -7.056230 0.000000
					CHANNELS 3 Zrotation Yrotation Xrotation
					JOINT RightToeBase
					{
						OFFSET -0.164730 -0.452590 2.363150
						CHANNELS 3 Zrotation Yrotation Xrotation
						End Site
						{
							OFFSET 0.000000 0.000000 0.000000
						}
					}
				}
			}
		}
	}
	JOINT LowerBack
	{
		OFFSET 0.000000 0.000000 0.000000
		CHANNELS 3 Zrotation Yrotation Xrotation
		JOINT Spine
		{
			OFFSET 0.028270 2.035590 -0.193380
			CHANNELS 3 Zrotation Yrotation Xrotation
			JOINT Spine1
			{
				OFFSET 0.056720 2.048850 -0.042750
				CHANNELS 3 Zrotation Yrotation Xrotation
				JOINT Neck
				{
					OFFSET 0.000000 0.000000 0.000000
					CHANNELS 3 Zrotation Yrotation Xrotation
					JOINT Neck1
					{
						OFFSET -0.054170 1.746240 0.172020
						CHANNELS 3 Zrotation Yrotation Xrotation
						JOINT Head
						{
							OFFSET 0.104070 1.761360 -0.123970
							CHANNELS 3 Zrotation Yrotation Xrotation
							End Site
							{
								OFFSET 0.000000 0.000000 0.000000
							}
						}
					}
				}
				JOINT LeftShoulder
				{
					OFFSET 0.000000 0.000000 0.000000
					CHANNELS 3 Zrotation Yrotation Xrotation
					JOINT LeftArm
					{
						OFFSET 3.362410 1.200890 -0.311210
						CHANNELS 3 Zrotation Yrotation Xrotation
						JOINT LeftForeArm
						{
							OFFSET 4.983000 -0.000000 -0.000000
							CHANNELS 3 Zrotation Yrotation Xrotation
							JOINT LeftHand
							{
								OFFSET 3.483560 -0.000000 -0.000000
								CHANNELS 3 Zrotation Yrotation Xrotation
								JOINT LeftFingerBase
								{
									OFFSET 0.000000 0.000000 0.000000
									CHANNELS 3 Zrotation Yrotation Xrotation
									JOINT LeftHandIndex1
									{
										OFFSET 0.715260 -0.000000 -0.000000
										CHANNELS 3 Zrotation Yrotation Xrotation
										End Site
										{
											OFFSET 0.000000 0.000000 0.000000
										}
									}
								}
								JOINT LThumb
								{
									OFFSET 0.000000 0.000000 0.000000
									CHANNELS 3 Zrotation Yrotation Xrotation
									End Site
									{
										OFFSET 0.000000 0.000000 0.000000
									}
								}
							}
						}
					}
				}
				JOINT RightShoulder
				{
					OFFSET 0.000000 0.000000 0.000000
					CHANNELS 3 Zrotation Yrotation Xrotation
					JOINT RightArm
					{
						OFFSET -3.136600 1.374050 -0.404650
						CHANNELS 3 Zrotation Yrotation Xrotation
						JOINT RightForeArm
						{
							OFFSET -5.241900 -0.000000 -0.000000
							CHANNELS 3 Zrotation Yrotation Xrotation
							JOINT RightHand
							{
								OFFSET -3.444170 -0.000000 -0.000000
								CHANNELS 3 Zrotation Yrotation Xrotation
								JOINT RightFingerBase
								{
									OFFSET 0.000000 0.000000 0.000000
									CHANNELS 3 Zrotation Yrotation Xrotation
									JOINT RightHandIndex1
									{
										OFFSET -0.622530 -0.000000 -0.000000
										CHANNELS 3 Zrotation Yrotation Xrotation
										End Site
										{
											OFFSET 0.000000 0.000000 0.000000
										}
									}
								}
								JOINT RThumb
								{
									OFFSET 0.000000 0.000000 0.000000
									CHANNELS 3 Zrotation Yrotation Xrotation
									End Site
									{
										OFFSET 0.000000 0.000000 0.000000
									}
								}
							}
						}
					}
				}
			}
		}
	}
}
MOTION
Frames: 4
Frame Time: 0.008333
-0.600767 17.066234 4.393861 -0.387509 -11.107075 4.221670 11.375083 3.049743 -3.774201 -23.788648 3.149061 9.265307 -1.739753 -0.746920 1.465140 -0.717508 10.471242 -10.209524 0.009800 0.638700 1.755200 -13.871157 -3.234714 -2.952413 26.970821 14.264010 -1.169377 0.735822 -6.270667 19.441787 1.070391 -13.922677 -14.578901 -0.054500 1.505800 -4.141800 1.448499 -1.983766 2.790516 1.242771 -2.780081 -5.281526 -0.265084 -1.425382 -4.046017 -3.500989 -9.507082 -15.473516 6.122069 -13.056134 10.476694 -1.107200 -5.628300 9.824500 13.692325 -10.726810 3.006229 -101.616273 7.129453 15.707743 24.638587 -33.916240 -4.792036 0.280648 4.347691 20.125102 4.536705 16.394281 1.235300 -7.125000 0.000000 0.000000 -18.930000 41.437400 1.733000 -13.507454 11.755668 2.878509 93.277918 0.286717 22.801540 -18.146844 28.462067 -2.796101 -1.211494 -2.938032 13.383852 -10.777402 -8.931760 1.043100 7.125000 0.000000 0.000000 13.630700 -35.534900 3.245900 
-0.599046 17.067095 4.391925 -0.380189 -11.096414 4.204197 11.375102 3.050486 -3.774295 -23.802253 3.138899 9.274415 -1.740370 -0.746606 1.464867 -0.719378 10.481069 -10.196457 0.009500 0.630000 1.731100 -13.868623 -3.238350 -2.959194 26.956758 14.216495 -1.162851 0.735673 -6.264616 19.432907 1.069776 -13.909552 -14.562951 -0.055700 1.522400 -4.187500 1.475260 -1.983668 2.824324 1.241884 -2.776248 -5.275406 -0.302377 -1.425792 -4.020170 -3.443361 -9.459542 -15.544564 6.128807 -12.996253 10.471982 -1.115600 -5.594600 9.836000 13.702131 -10.727936 3.009154 -101.630228 7.119286 15.784942 24.637061 -33.921140 -4.792579 0.291769 4.345250 20.102880 4.606141 16.380223 1.245700 -7.125000 0.000000 0.000000 -18.876700 41.426900 1.732900 -13.528728 11.758432 2.866246 93.292801 0.316790 22.474192 -17.934453 28.257807 -2.749513 -1.242146 -2.892408 13.681316 -10.838564 -8.718461 1.014400 7.125000 0.000000 0.000000 13.568300 -35.360700 3.289400 
-0.597862 17.067418 4.389558 -0.388177 -11.077647 4.201154 11.374831 3.048140 -3.776605 -23.796968 3.118906 9.266791 -1.740605 -0.746460 1.464221 -0.721482 10.492096 -10.184119 0.009500 0.629700 1.730300 -13.872593 -3.235720 -2.957353 26.976409 14.260545 -1.148853 0.735894 -6.267336 19.437384 1.079930 -13.976132 -14.572790 -0.055700 1.522700 -4.188200 1.504368 -1.990114 2.855289 1.244241 -2.783710 -5.271576 -0.313950 -1.430053 -4.016997 -3.436677 -9.442292 -15.562949 6.141908 -12.968823 10.440995 -1.107000 -5.584700 9.819700 13.710204 -10.737618 3.014307 -101.666975 7.120144 15.778822 24.636363 -33.926288 -4.790907 0.293875 4.339887 20.173112 4.600476 16.346182 1.241800 -7.125000 0.000000 0.000000 -18.872000 41.399700 1.745600 -13.546611 11.760652 2.858669 93.304049 0.316222 22.089042 -17.755148 28.066235 -2.698483 -1.244943 -2.823853 14.052817 -10.731846 -8.379897 0.954300 7.125000 0.000000 0.000000 13.605700 -35.084500 3.392900 
-0.596033 17.067203 4.387621 -0.364050 -11.079826 4.178946 11.375962 3.048789 -3.776751 -23.828977 3.121810 9.278765 -1.741452 -0.745494 1.464026 -0.722556 10.498458 -10.173275 0.009200 0.620500 1.705200 -13.870195 -3.235977 -2.960488 26.946126 14.254344 -1.139956 0.733287 -6.266480 19.443635 1.080371 -13.976012 -14.573661 -0.056100 1.528300 -4.203700 1.499197 -1.995693 2.909176 1.244767 -2.787786 -5.269162 -0.305885 -1.433311 -4.004379 -3.407686 -9.397820 -15.640782 6.151718 -12.907589 10.422743 -1.110200 -5.553700 9.824600 13.706865 -10.735630 3.011899 -101.704756 7.128147 15.783283 24.642175 -33.937536 -4.792296 0.294434 4.338821 20.176231 4.605380 16.333137 1.241500 -7.125000 0.000000 0.000000 -18.864800 41.388600 1.750200 -13.527266 11.761783 2.869753 93.273543 0.312589 21.862847 -17.906929 28.251456 -2.759411 -1.032420 -3.169273 14.719886 -9.510259 -10.564098 1.181000 7.125000 0.000000 0.000000 14.703500 -36.902400 3.008900 
